<svg width="37" height="37" viewBox="0 0 37 37" fill="none" xmlns="http://www.w3.org/2000/svg">
<path d="M37 18.5C37 28.7173 28.7173 37 18.5 37C8.28273 37 0 28.7173 0 18.5C0 8.28273 8.28273 0 18.5 0C28.7173 0 37 8.28273 37 18.5Z" fill="#DA0121"/>
<path d="M18.5 10.7499C18.7569 10.7499 19.0033 10.8519 19.185 11.0336C19.3667 11.2153 19.4688 11.4617 19.4688 11.7186V17.5311H25.2812C25.5382 17.5311 25.7846 17.6332 25.9663 17.8149C26.1479 17.9965 26.25 18.243 26.25 18.4999C26.25 18.7568 26.1479 19.0032 25.9663 19.1849C25.7846 19.3666 25.5382 19.4686 25.2812 19.4686H19.4688V25.2811C19.4688 25.5381 19.3667 25.7845 19.185 25.9661C19.0033 26.1478 18.7569 26.2499 18.5 26.2499C18.2431 26.2499 17.9967 26.1478 17.815 25.9661C17.6333 25.7845 17.5312 25.5381 17.5312 25.2811V19.4686H11.7188C11.4618 19.4686 11.2154 19.3666 11.0337 19.1849C10.8521 19.0032 10.75 18.7568 10.75 18.4999C10.75 18.243 10.8521 17.9965 11.0337 17.8149C11.2154 17.6332 11.4618 17.5311 11.7188 17.5311H17.5312V11.7186C17.5312 11.4617 17.6333 11.2153 17.815 11.0336C17.9967 10.8519 18.2431 10.7499 18.5 10.7499Z" fill="white"/>
</svg>
