<svg width="37" height="37" viewBox="0 0 37 37" fill="none" xmlns="http://www.w3.org/2000/svg">
<path d="M37 18.5C37 28.7173 28.7173 37 18.5 37C8.28273 37 0 28.7173 0 18.5C0 8.28273 8.28273 0 18.5 0C28.7173 0 37 8.28273 37 18.5Z" fill="#AF000F"/>
<path d="M23.9801 13.0199C24.1618 13.2016 24.2638 13.448 24.2638 13.705C24.2638 13.9619 24.1618 14.2083 23.9801 14.39L19.87 18.5L23.9801 22.6101C24.1618 22.7918 24.2638 23.0382 24.2638 23.2951C24.2638 23.552 24.1618 23.7984 23.9801 23.9801C23.7984 24.1618 23.552 24.2638 23.2951 24.2638C23.0381 24.2638 22.7917 24.1618 22.6101 23.9801L18.5 19.87L14.3899 23.9801C14.2083 24.1618 13.9619 24.2638 13.7049 24.2638C13.448 24.2638 13.2016 24.1618 13.0199 23.9801C12.8382 23.7984 12.7362 23.552 12.7362 23.2951C12.7362 23.0382 12.8382 22.7918 13.0199 22.6101L17.13 18.5L13.0199 14.39C12.8382 14.2083 12.7362 13.9619 12.7362 13.705C12.7362 13.448 12.8382 13.2016 13.0199 13.0199C13.2016 12.8383 13.448 12.7362 13.7049 12.7362C13.9619 12.7362 14.2083 12.8383 14.3899 13.0199L18.5 17.13L22.6101 13.0199C22.7917 12.8383 23.0381 12.7362 23.2951 12.7362C23.552 12.7362 23.7984 12.8383 23.9801 13.0199Z" fill="white"/>
</svg>
